<svg width="87" height="86" viewBox="0 0 87 86" fill="none" xmlns="http://www.w3.org/2000/svg">
<path d="M44.0255 38.6725C43.9631 38.5928 43.8833 38.5283 43.7923 38.4839C43.7012 38.4396 43.6013 38.4165 43.5 38.4165C43.3988 38.4165 43.2988 38.4396 43.2078 38.4839C43.1168 38.5283 43.037 38.5928 42.9746 38.6725L33.6336 50.4906C33.5566 50.5889 33.5088 50.707 33.4957 50.8312C33.4826 50.9554 33.5047 51.0808 33.5595 51.193C33.6143 51.3052 33.6996 51.3998 33.8056 51.4658C33.9116 51.5319 34.0341 51.5668 34.159 51.5665H40.3224V71.7832C40.3224 72.1502 40.6227 72.4504 40.9896 72.4504H45.9938C46.3607 72.4504 46.661 72.1502 46.661 71.7832V51.5748H52.8411C53.3999 51.5748 53.7085 50.9326 53.3665 50.4989L44.0255 38.6725Z" fill="black"/>
<path d="M68.4706 30.9745C64.6508 20.8995 54.9177 13.7352 43.5167 13.7352C32.1156 13.7352 22.3825 20.8911 18.5627 30.9661C11.4151 32.8427 6.13577 39.3564 6.13577 47.0961C6.13577 56.3121 13.6003 63.7766 22.8079 63.7766H26.1523C26.5193 63.7766 26.8195 63.4763 26.8195 63.1094V58.1052C26.8195 57.7382 26.5193 57.438 26.1523 57.438H22.8079C19.9972 57.438 17.3534 56.3204 15.3851 54.2937C13.4251 52.2754 12.3826 49.5565 12.4743 46.7375C12.5494 44.5357 13.3 42.4673 14.6595 40.7242C16.0523 38.9477 18.0039 37.655 20.1724 37.0795L23.3333 36.2538L24.4926 33.2013C25.2099 31.2997 26.2107 29.5233 27.4701 27.9136C28.7134 26.3182 30.1861 24.9157 31.8403 23.7518C35.2682 21.3415 39.3048 20.0655 43.5167 20.0655C47.7285 20.0655 51.7651 21.3415 55.193 23.7518C56.8527 24.9195 58.3205 26.3206 59.5632 27.9136C60.8226 29.5233 61.8234 31.3081 62.5407 33.2013L63.6916 36.2455L66.8443 37.0795C71.3647 38.2972 74.5256 42.4089 74.5256 47.0961C74.5256 49.8567 73.4497 52.4589 71.4981 54.4105C70.541 55.3732 69.4025 56.1365 68.1484 56.6561C66.8943 57.1758 65.5496 57.4416 64.1921 57.438H60.8476C60.4807 57.438 60.1804 57.7382 60.1804 58.1052V63.1094C60.1804 63.4763 60.4807 63.7766 60.8476 63.7766H64.1921C73.3997 63.7766 80.8642 56.3121 80.8642 47.0961C80.8642 39.3647 75.6015 32.8594 68.4706 30.9745Z" fill="black"/>
</svg>
