<svg width="12" height="15" viewBox="0 0 12 15" fill="none" xmlns="http://www.w3.org/2000/svg">
<path d="M6.02033 0.882359L6.20044 0.88567C9.43048 0.992244 12.0109 3.65783 12 6.91952L11.9998 6.99176C11.9631 8.93736 10.9896 10.8531 9.37445 12.5628C8.57767 13.3928 7.6879 14.1275 6.72285 14.7524L6.72988 14.7473L6.69587 14.7761C6.31009 15.0533 5.79887 15.0731 5.39518 14.8355L5.30403 14.7761L5.26145 14.7427L4.9696 14.5462C3.75749 13.7106 2.67798 12.6968 1.76959 11.5418L1.54608 11.2501C0.594404 10.0028 0.0540768 8.489 0 6.90089L0.00326669 6.69979C0.10948 3.45978 2.7669 0.871342 6.02033 0.882359ZM6.0167 1.95351L5.84714 1.9558C3.2014 2.03646 1.07689 4.20863 1.06783 6.88226L1.0813 7.13428C1.173 8.3911 1.6286 9.59591 2.39743 10.6036C3.35193 11.8822 4.52327 12.9823 5.85788 13.8536L5.91592 13.8974C5.96417 13.9393 6.03573 13.9393 6.08398 13.8974L6.14369 13.8526C7.03958 13.2724 7.8656 12.5903 8.60231 11.8229C10.0471 10.2935 10.9012 8.61278 10.9321 6.98161L10.9298 6.74761C10.8494 4.09371 8.68389 1.96263 6.0167 1.95351ZM5.99995 4.695C7.26234 4.695 8.28572 5.72153 8.28572 6.98782C8.28572 8.25411 7.26234 9.28065 5.99995 9.28065C4.73755 9.28065 3.71418 8.25411 3.71418 6.98782C3.71418 5.72153 4.73755 4.695 5.99995 4.695ZM5.99995 5.76612C5.3273 5.76612 4.78201 6.3131 4.78201 6.98782C4.78201 7.66255 5.3273 8.20952 5.99995 8.20952C6.6726 8.20952 7.21789 7.66255 7.21789 6.98782C7.21789 6.3131 6.6726 5.76612 5.99995 5.76612Z" fill="white"/>
</svg>
