<svg width="20" height="18" viewBox="0 0 20 18" fill="none" xmlns="http://www.w3.org/2000/svg">
<path d="M1.41547 6C1.61325 6 1.80659 5.94135 1.97104 5.83147C2.13549 5.72159 2.26366 5.56541 2.33935 5.38268C2.41503 5.19996 2.43484 4.99889 2.39625 4.80491C2.35767 4.61093 2.26243 4.43275 2.12257 4.29289C1.98272 4.15304 1.80454 4.0578 1.61056 4.01921C1.41658 3.98063 1.21551 4.00043 1.03278 4.07612C0.850057 4.15181 0.693878 4.27998 0.583997 4.44443C0.474115 4.60888 0.415466 4.80222 0.415466 5C0.415466 5.26522 0.520823 5.51957 0.708359 5.70711C0.895896 5.89464 1.15025 6 1.41547 6ZM5.41547 6H12.4155C13.2111 6 13.9742 5.68393 14.5368 5.12132C15.0994 4.55871 15.4155 3.79565 15.4155 3C15.4155 2.20435 15.0994 1.44129 14.5368 0.87868C13.9742 0.316071 13.2111 0 12.4155 0C11.8894 0.00217645 11.3728 0.139943 10.9155 0.4C10.8009 0.46533 10.7003 0.552684 10.6197 0.657031C10.539 0.761378 10.4797 0.880656 10.4453 1.008C10.411 1.13534 10.4021 1.26822 10.4193 1.399C10.4365 1.52978 10.4793 1.65587 10.5455 1.77C10.6116 1.88375 10.6996 1.98333 10.8043 2.06302C10.909 2.14271 11.0285 2.20094 11.1557 2.23439C11.283 2.26783 11.4156 2.27583 11.546 2.25791C11.6764 2.24 11.8019 2.19653 11.9155 2.13C12.0693 2.04722 12.2408 2.00264 12.4155 2C12.6807 2 12.935 2.10536 13.1226 2.29289C13.3101 2.48043 13.4155 2.73478 13.4155 3C13.4155 3.26522 13.3101 3.51957 13.1226 3.70711C12.935 3.89464 12.6807 4 12.4155 4H5.41547C5.15025 4 4.8959 4.10536 4.70836 4.29289C4.52082 4.48043 4.41547 4.73478 4.41547 5C4.41547 5.26522 4.52082 5.51957 4.70836 5.70711C4.8959 5.89464 5.15025 6 5.41547 6ZM1.41547 10H8.41547C8.68068 10 8.93504 9.89464 9.12257 9.70711C9.31011 9.51957 9.41547 9.26522 9.41547 9C9.41547 8.73478 9.31011 8.48043 9.12257 8.29289C8.93504 8.10536 8.68068 8 8.41547 8H1.41547C1.15025 8 0.895896 8.10536 0.708359 8.29289C0.520823 8.48043 0.415466 8.73478 0.415466 9C0.415466 9.26522 0.520823 9.51957 0.708359 9.70711C0.895896 9.89464 1.15025 10 1.41547 10ZM18.4155 6C18.6132 6 18.8066 5.94135 18.971 5.83147C19.1355 5.72159 19.2637 5.56541 19.3393 5.38268C19.415 5.19996 19.4348 4.99889 19.3963 4.80491C19.3577 4.61093 19.2624 4.43275 19.1226 4.29289C18.9827 4.15304 18.8045 4.0578 18.6106 4.01921C18.4166 3.98063 18.2155 4.00043 18.0328 4.07612C17.8501 4.15181 17.6939 4.27998 17.584 4.44443C17.4741 4.60888 17.4155 4.80222 17.4155 5C17.4155 5.26522 17.5208 5.51957 17.7084 5.70711C17.8959 5.89464 18.1502 6 18.4155 6ZM16.4155 8H12.4155C12.1502 8 11.8959 8.10536 11.7084 8.29289C11.5208 8.48043 11.4155 8.73478 11.4155 9C11.4155 9.26522 11.5208 9.51957 11.7084 9.70711C11.8959 9.89464 12.1502 10 12.4155 10H16.4155C16.6807 10 16.935 10.1054 17.1226 10.2929C17.3101 10.4804 17.4155 10.7348 17.4155 11C17.4155 11.2652 17.3101 11.5196 17.1226 11.7071C16.935 11.8946 16.6807 12 16.4155 12C16.1502 12 15.8959 12.1054 15.7084 12.2929C15.5208 12.4804 15.4155 12.7348 15.4155 13C15.4155 13.2652 15.5208 13.5196 15.7084 13.7071C15.8959 13.8946 16.1502 14 16.4155 14C17.2111 14 17.9742 13.6839 18.5368 13.1213C19.0994 12.5587 19.4155 11.7956 19.4155 11C19.4155 10.2044 19.0994 9.44129 18.5368 8.87868C17.9742 8.31607 17.2111 8 16.4155 8ZM10.4155 12H6.41547C6.15025 12 5.8959 12.1054 5.70836 12.2929C5.52082 12.4804 5.41547 12.7348 5.41547 13C5.41547 13.2652 5.52082 13.5196 5.70836 13.7071C5.8959 13.8946 6.15025 14 6.41547 14H10.4155C10.6807 14 10.935 14.1054 11.1226 14.2929C11.3101 14.4804 11.4155 14.7348 11.4155 15C11.4155 15.2652 11.3101 15.5196 11.1226 15.7071C10.935 15.8946 10.6807 16 10.4155 16C10.2408 15.9974 10.0693 15.9528 9.91547 15.87C9.80165 15.7976 9.67437 15.7491 9.54129 15.7272C9.40821 15.7053 9.27208 15.7105 9.14108 15.7426C9.01008 15.7747 8.88693 15.833 8.77903 15.9139C8.67113 15.9948 8.58072 16.0967 8.51322 16.2135C8.44573 16.3302 8.40255 16.4594 8.38629 16.5933C8.37002 16.7272 8.38101 16.863 8.41859 16.9925C8.45617 17.1221 8.51956 17.2427 8.60495 17.347C8.69034 17.4514 8.79596 17.5375 8.91547 17.6C9.37277 17.8601 9.88939 17.9978 10.4155 18C11.2111 18 11.9742 17.6839 12.5368 17.1213C13.0994 16.5587 13.4155 15.7956 13.4155 15C13.4155 14.2044 13.0994 13.4413 12.5368 12.8787C11.9742 12.3161 11.2111 12 10.4155 12ZM2.41547 12H1.41547C1.15025 12 0.895896 12.1054 0.708359 12.2929C0.520823 12.4804 0.415466 12.7348 0.415466 13C0.415466 13.2652 0.520823 13.5196 0.708359 13.7071C0.895896 13.8946 1.15025 14 1.41547 14H2.41547C2.68068 14 2.93504 13.8946 3.12257 13.7071C3.31011 13.5196 3.41547 13.2652 3.41547 13C3.41547 12.7348 3.31011 12.4804 3.12257 12.2929C2.93504 12.1054 2.68068 12 2.41547 12Z" fill="white"/>
</svg>
