<svg width="20" height="20" viewBox="0 0 20 20" fill="none" xmlns="http://www.w3.org/2000/svg">
<path d="M6.91547 5.75151C6.91547 3.00151 4.33547 1.24151 4.22547 1.17151C4.0601 1.05973 3.86507 1 3.66547 1C3.46587 1 3.27083 1.05973 3.10547 1.17151C2.99547 1.25151 0.415466 3.00151 0.415466 5.75151C0.415466 6.61346 0.757876 7.44011 1.36737 8.0496C1.97686 8.6591 2.80351 9.00151 3.66547 9.00151C4.52742 9.00151 5.35407 8.6591 5.96356 8.0496C6.57306 7.44011 6.91547 6.61346 6.91547 5.75151ZM3.66547 7.00151C3.33395 7.00151 3.016 6.86981 2.78158 6.63539C2.54716 6.40097 2.41547 6.08303 2.41547 5.75151C2.49776 4.80339 2.94612 3.9246 3.66547 3.30151C4.38911 3.92123 4.83842 4.80189 4.91547 5.75151C4.91547 6.08303 4.78377 6.40097 4.54935 6.63539C4.31493 6.86981 3.99699 7.00151 3.66547 7.00151ZM9.72547 8.17151C9.5601 8.05973 9.36507 8 9.16547 8C8.96587 8 8.77083 8.05973 8.60547 8.17151C8.43547 8.29151 4.41547 11.0715 4.41547 15.2515C4.41547 16.5113 4.91591 17.7195 5.80671 18.6103C6.69751 19.5011 7.90569 20.0015 9.16547 20.0015C10.4252 20.0015 11.6334 19.5011 12.5242 18.6103C13.415 17.7195 13.9155 16.5113 13.9155 15.2515C13.9155 11.0015 9.91547 8.28151 9.72547 8.17151ZM9.16547 18.0015C8.80433 18.0015 8.44673 17.9304 8.11309 17.7922C7.77944 17.654 7.47628 17.4514 7.22092 17.1961C6.96556 16.9407 6.763 16.6375 6.6248 16.3039C6.4866 15.9702 6.41547 15.6126 6.41547 15.2515C6.41547 12.9415 8.22547 11.0815 9.17547 10.2515C10.1155 11.0415 11.9155 12.8815 11.9155 15.2515C11.9155 15.6126 11.8443 15.9702 11.7061 16.3039C11.5679 16.6375 11.3654 16.9407 11.11 17.1961C10.8546 17.4514 10.5515 17.654 10.2178 17.7922C9.8842 17.9304 9.5266 18.0015 9.16547 18.0015ZM15.9755 0.171507C15.8101 0.0597315 15.6151 0 15.4155 0C15.2159 0 15.0208 0.0597315 14.8555 0.171507C14.7155 0.271507 11.4155 2.55151 11.4155 6.00151C11.4155 7.06237 11.8369 8.07979 12.587 8.82994C13.3372 9.58008 14.3546 10.0015 15.4155 10.0015C16.4763 10.0015 17.4937 9.58008 18.2439 8.82994C18.994 8.07979 19.4155 7.06237 19.4155 6.00151C19.4155 2.51151 16.1155 0.261507 15.9755 0.171507ZM15.4155 8.00151C14.885 8.00151 14.3763 7.79079 14.0013 7.41572C13.6262 7.04065 13.4155 6.53194 13.4155 6.00151C13.484 5.27943 13.6962 4.57834 14.0397 3.93949C14.3832 3.30064 14.8509 2.73693 15.4155 2.28151C15.9821 2.73498 16.4513 3.29822 16.795 3.93745C17.1387 4.57668 17.3497 5.27873 17.4155 6.00151C17.4155 6.53194 17.2048 7.04065 16.8297 7.41572C16.4546 7.79079 15.9459 8.00151 15.4155 8.00151Z" fill="white"/>
</svg>
